<svg width="81" height="81" viewBox="0 0 81 81" fill="none" xmlns="http://www.w3.org/2000/svg">
<path d="M45.5625 10.125C28.7888 10.125 15.1875 23.7263 15.1875 40.5H5.0625L18.1912 53.6287L18.4275 54.1013L32.0625 40.5H21.9375C21.9375 27.4388 32.5013 16.875 45.5625 16.875C58.6237 16.875 69.1875 27.4388 69.1875 40.5C69.1875 53.5612 58.6237 64.125 45.5625 64.125C39.0488 64.125 33.1425 61.4588 28.89 57.1725L24.0975 61.965C29.5987 67.4663 37.1587 70.875 45.5625 70.875C62.3363 70.875 75.9375 57.2738 75.9375 40.5C75.9375 23.7263 62.3363 10.125 45.5625 10.125ZM42.1875 27V43.875L56.5312 52.38L59.13 48.06L47.25 41.0062V27H42.1875Z" fill="black"/>
</svg>
