<svg width="79" height="79" viewBox="0 0 79 79" fill="none" xmlns="http://www.w3.org/2000/svg">
<circle cx="39.5" cy="39.5" r="39.5" fill="#0D0D0D"/>
<path d="M52.0142 65.3673H27.685C25.0349 65.2709 22.5663 63.9962 20.9534 61.8913C19.3405 59.7864 18.7518 57.0712 19.348 54.4873L19.9772 51.4986C20.7009 47.4527 24.1788 44.4795 28.2879 44.3938H51.4112C55.5203 44.4795 58.9982 47.4527 59.7219 51.4986L60.3511 54.4873C60.9474 57.0712 60.3586 59.7864 58.7457 61.8913C57.1328 63.9962 54.6642 65.2709 52.0142 65.3673Z" fill="#A6855D"/>
<path d="M41.1604 39.1504H38.5387C32.7471 39.1504 28.052 34.4554 28.052 28.6637V21.7425C28.045 19.4041 28.9708 17.1595 30.6243 15.506C32.2778 13.8525 34.5225 12.9266 36.8608 12.9336H42.8383C45.1767 12.9266 47.4213 13.8525 49.0748 15.506C50.7283 17.1595 51.6541 19.4041 51.6471 21.7425V28.6637C51.6471 31.445 50.5423 34.1123 48.5756 36.079C46.609 38.0456 43.9417 39.1504 41.1604 39.1504Z" fill="#A6855D"/>
</svg>
